FFmpeg version SVN-r25716, Copyright (c) 2000-2010 the FFmpeg developers  built on Nov 10 2010 12:23:18 with gcc 4.1.2 20080704 (Red Hat 4.1.2-48)  configuration: --enable-libmp3lame --enable-shared --disable-mmx --arch=x86_64  libavutil     50.33. 0 / 50.33. 0  libavcore      0.12. 1 /  0.12. 1  libavcodec    52.94. 4 / 52.94. 4  libavformat   52.84. 0 / 52.84. 0  libavdevice   52. 2. 2 / 52. 2. 2  libavfilter    1.59. 0 /  1.59. 0  libswscale     0.12. 0 /  0.12. 0Input #0, avi, from '/RAID10/data/converted_video_files/47558.avi':  Duration: 00:00:05.46, start: 0.000000, bitrate: 31541 kb/s    Stream #0.0: Video: msvideo1, rgb555le, 1024x1024, 30 tbr, 30 tbn, 30 tbc[buffer @ 0xc035520] w:1024 h:1024 pixfmt:rgb555le[ffsink @ 0xc034b40] auto-inserting filter 'auto-inserted scaler 0' between the filter 'src' and the filter 'out'[scale @ 0xc033a70] w:1024 h:1024 fmt:rgb555le -> w:1024 h:1024 fmt:yuv420p flags:0x4Output #0, flv, to '/RAID10/data/converted_video_files/47558.flv':  Metadata:    encoder         : Lavf52.84.0    Stream #0.0: Video: flv, yuv420p, 1024x1024, q=2-31, 600 kb/s, 1k tbn, 24 tbcStream mapping:  Stream #0.0 -> #0.0Press [q] to stop encodingframe=    7 fps=  0 q=10.0 size=     559kB time=0.29 bitrate=15691.2kbits/s dup=0 drop=1    frame=   14 fps= 12 q=20.1 size=     692kB time=0.58 bitrate=9728.5kbits/s dup=0 drop=3    frame=   23 fps= 14 q=31.0 size=     745kB time=0.96 bitrate=6370.0kbits/s dup=0 drop=5    frame=   33 fps= 15 q=31.0 size=     787kB time=1.38 bitrate=4687.5kbits/s dup=0 drop=8    frame=   43 fps= 16 q=31.0 size=     801kB time=1.79 bitrate=3662.0kbits/s dup=0 drop=10    frame=   53 fps= 16 q=31.0 size=     841kB time=2.21 bitrate=3122.0kbits/s dup=0 drop=13    frame=   62 fps= 16 q=31.0 size=     881kB time=2.58 bitrate=2793.1kbits/s dup=0 drop=15    frame=   71 fps= 16 q=31.0 size=     918kB time=2.96 bitrate=2541.4kbits/s dup=0 drop=18    frame=   74 fps= 15 q=31.0 size=     922kB time=3.08 bitrate=2449.4kbits/s dup=0 drop=18    frame=   83 fps= 15 q=31.0 size=     963kB time=3.46 bitrate=2280.8kbits/s dup=0 drop=20    frame=   90 fps= 15 q=31.0 size=     972kB time=3.75 bitrate=2122.3kbits/s dup=0 drop=22    frame=   99 fps= 16 q=31.0 size=    1009kB time=4.12 bitrate=2003.1kbits/s dup=0 drop=24    frame=  109 fps= 16 q=31.0 size=    1047kB time=4.54 bitrate=1887.5kbits/s dup=0 drop=27    frame=  119 fps= 16 q=31.0 size=    1084kB time=4.96 bitrate=1790.7kbits/s dup=0 drop=29    frame=  129 fps= 16 q=31.0 size=    1121kB time=5.38 bitrate=1709.3kbits/s dup=0 drop=32    frame=  131 fps= 16 q=31.0 Lsize=    1124kB time=5.46 bitrate=1686.5kbits/s dup=0 drop=33    video:1121kB audio:0kB global headers:0kB muxing overhead 0.200814%